<?xml version="1.0" encoding="utf-8"?>
<!-- Generator: Adobe Illustrator 27.7.0, SVG Export Plug-In . SVG Version: 6.00 Build 0)  -->
<svg version="1.1" id="Capa_1" xmlns="http://www.w3.org/2000/svg" xmlns:xlink="http://www.w3.org/1999/xlink" x="0px" y="0px"
	 viewBox="0 0 50 50" style="enable-background:new 0 0 50 50;" xml:space="preserve">
<style type="text/css">
	.st0{fill:#FFFFFF;}
</style>
<path class="st0" d="M34.2,5.5c-6,0-10.8,4.9-10.8,10.8c0,0.4,0.1,0.7,0.1,1.1c-7.4-0.7-13.9-4.3-18.4-9.7C4.9,7.4,4.6,7.3,4.3,7.3
	c-0.3,0-0.6,0.2-0.8,0.5C2.5,9.4,2,11.2,2,13.2c0,2.4,0.9,4.6,2.2,6.4c-0.3-0.1-0.5-0.2-0.8-0.3c-0.3-0.2-0.7-0.2-1,0
	c-0.3,0.2-0.5,0.5-0.5,0.9v0.1c0,3.7,1.9,6.9,4.7,8.8c0,0-0.1,0-0.1,0c-0.3-0.1-0.7,0.1-0.9,0.3s-0.3,0.6-0.2,1
	c1.1,3.5,4,6.1,7.5,7.1c-2.8,1.7-6.1,2.7-9.6,2.7c-0.8,0-1.5,0-2.2-0.1c-0.5-0.1-0.9,0.2-1.1,0.7c-0.2,0.4,0,0.9,0.4,1.2
	c4.5,2.9,9.9,4.6,15.6,4.6c9.3,0,16.7-3.9,21.6-9.5s7.5-12.8,7.5-19.6c0-0.3,0-0.6,0-0.8c1.8-1.4,3.5-3,4.8-5
	c0.3-0.4,0.2-0.9-0.1-1.2c-0.3-0.3-0.8-0.4-1.2-0.3c-0.5,0.2-1.1,0.3-1.7,0.4c0.7-0.9,1.3-2,1.7-3.1c0.1-0.4,0-0.8-0.3-1.1
	c-0.3-0.3-0.8-0.3-1.1-0.1c-1.7,1-3.6,1.7-5.6,2.2C39.6,6.7,37.1,5.5,34.2,5.5z M34.2,7.5c2.6,0,4.9,1.1,6.5,2.8
	c0.2,0.2,0.6,0.4,0.9,0.3c1.3-0.3,2.5-0.6,3.8-1.1c-0.7,0.9-1.6,1.7-2.6,2.3c-0.5,0.2-0.7,0.8-0.5,1.2c0.2,0.5,0.7,0.8,1.2,0.6
	c1-0.1,1.9-0.5,2.8-0.8c-0.9,0.9-1.8,1.8-2.8,2.5c-0.3,0.2-0.4,0.5-0.4,0.9c0,0.4,0,0.8,0,1.2c0,6.2-2.4,13-7,18.2
	s-11.3,8.8-20.1,8.8c-4,0-7.8-0.9-11.2-2.4c4.2-0.3,8.1-1.8,11.2-4.3c0.3-0.3,0.5-0.7,0.3-1.1S16,36,15.6,36c-3.3-0.1-6.1-2-7.5-4.7
	c0.1,0,0.1,0,0.2,0c1,0,2-0.1,2.9-0.4c0.4-0.1,0.7-0.5,0.7-1S11.5,29.1,11,29c-3.6-0.7-6.2-3.6-6.8-7.2c1,0.3,2,0.6,3.2,0.7
	c0.5,0,0.9-0.3,1-0.7s0-0.9-0.4-1.2C5.6,19,4,16.3,4,13.2C4,12.1,4.3,11,4.7,10c5,5.5,12,9.1,19.9,9.5c0.3,0,0.6-0.1,0.8-0.4
	c0.2-0.2,0.3-0.6,0.2-0.9c-0.2-0.6-0.2-1.3-0.2-2C25.4,11.4,29.3,7.5,34.2,7.5z"/>
</svg>
