<?xml version="1.0" encoding="UTF-8"?>
<svg id="Capa_1" data-name="Capa 1" xmlns="http://www.w3.org/2000/svg" viewBox="0 0 169.24 171.34">
  <defs>
    <style>
      .cls-1 {
        fill: #fff;
      }

      .cls-1, .cls-2, .cls-3, .cls-4, .cls-5, .cls-6, .cls-7 {
        fill-rule: evenodd;
      }

      .cls-2 {
        fill: #004996;
      }

      .cls-3 {
        fill: #ffdf00;
      }

      .cls-4 {
        fill: #1d1d1b;
      }

      .cls-5 {
        fill: #a4244a;
      }

      .cls-6 {
        fill: #dc2f34;
      }

      .cls-7 {
        fill: #e2b900;
      }
    </style>
  </defs>
  <path class="cls-4" d="m108.55,1.43c-7.89,5.48-15.49,8.03-23.93,8.03s-16.05-2.55-23.93-8.03l-2.06-1.43-2.09,1.38c-8.92,5.9-16.16,6.98-27.22,6.98-3.81,0-7.91-.72-11.85-2.08l-2.63-.91-1.6,2.27c-.85,1.21-1.48,1.98-2.09,2.72-.75.91-1.46,1.78-2.3,3.12l-1.34,2.15,1.52,2.02c6.76,8.98,9.31,18.21,9.31,26.91,0,16.21-8.87,30.54-15.85,37.79l-2.52,2.61,2.57,2.56c1.38,1.37,3.83,3.92,5.86,6.05,0,.08-.08,1.12-.08,1.12l-.02.2c-.08,1.57-.13,3.13-.13,4.65,0,16.47,4.87,30.15,14.5,40.74,11.15,12.26,28.59,19.58,49.19,20.72,5.12,4.66,10.32,8.53,10.55,8.7l2.2,1.63,2.2-1.64c.23-.17,5.4-4.04,10.51-8.7,20.61-1.14,38.04-8.46,49.19-20.72,9.63-10.59,14.5-24.28,14.5-40.74,0-1.53-.04-3.08-.13-4.65v-.04s-.02-.2-.02-.2c0,0-.07-1-.08-1.08,1.88-1.97,4.41-4.6,5.86-6.05l2.57-2.56-2.51-2.61c-6.98-7.25-15.85-21.57-15.85-37.79,0-8.69,2.55-17.93,9.3-26.91l1.52-2.02-1.33-2.15c-.83-1.34-1.54-2.21-2.3-3.12-.61-.74-1.24-1.51-2.09-2.72l-1.6-2.27-2.63.91c-3.94,1.36-8.04,2.08-11.85,2.08-11.06,0-18.3-1.08-27.22-6.98l-2.09-1.38-2.06,1.43h0Z"/>
  <path class="cls-7" d="m84.64,166.74s-5.89-4.37-11.21-9.34c-34.81-1.44-63.62-20.97-61.42-62.31.13-1.09.02-1.02.21-2.88-2-2.11-5.3-5.56-7.04-7.3,12.49-12.96,27.06-42.6,6.83-69.47,1.33-2.14,2.29-2.85,4.27-5.66,4.04,1.4,8.54,2.28,13.05,2.28,11.6,0,19.52-1.15,29.25-7.6,7.7,5.34,16.04,8.69,26.04,8.69s18.34-3.34,26.04-8.69c9.74,6.45,17.65,7.6,29.25,7.6,4.52,0,9.01-.89,13.05-2.28,1.98,2.82,2.94,3.52,4.27,5.66-20.22,26.88-5.65,56.52,6.83,69.47-1.74,1.74-5.05,5.19-7.04,7.3.19,1.86.08,1.79.21,2.88,2.2,41.35-26.61,60.87-61.42,62.31-5.32,4.97-11.18,9.34-11.18,9.34h0Z"/>
  <path class="cls-4" d="m18.61,92.62h-.49l-.21,1.78-.15,1.15c-.81,15.93,3.16,28.8,11.8,38.28,9.91,10.87,25.97,17.07,46.44,17.92.02,0,.34,0,.34,0,6.14.03,11.94.06,16.88,0,20.49-.85,36.55-7.04,46.46-17.92,8.64-9.48,12.61-22.35,11.8-38.25,0-.03-.15-1.18-.15-1.18l-.21-1.75-.49-.02H18.61Z"/>
  <path class="cls-2" d="m19.1,93.72c-.05.4-.1.84-.1.84,0,0-.14,1.06-.14,1.06-.07,1.33-.1,2.63-.1,3.92,0,13.8,3.9,25.06,11.62,33.53,1.84,2.02,3.91,3.88,6.18,5.57v-44.92h-17.46Z"/>
  <path class="cls-2" d="m150.38,95.66l-.14-1.1s-.05-.44-.1-.84h-17.46v44.92c2.27-1.69,4.34-3.54,6.18-5.57,7.72-8.47,11.62-19.73,11.62-33.51,0-1.28-.03-2.58-.1-3.9h0Z"/>
  <path class="cls-5" d="m55.78,93.72h-19.23v44.92c5.32,3.95,11.78,6.97,19.23,9.01v-53.92h0Z"/>
  <path class="cls-5" d="m113.46,93.72v53.92c7.45-2.03,13.91-5.05,19.22-9.01v-44.92h-19.22Z"/>
  <path class="cls-2" d="m66.19,121.39c0-6.65,3.53-12.48,8.82-15.72v-11.94h-19.22v53.92c5.83,1.59,12.26,2.58,19.22,2.93v-13.46c-5.29-3.24-8.82-9.07-8.82-15.72h0Z"/>
  <path class="cls-2" d="m94.23,93.72v11.94c5.29,3.24,8.82,9.07,8.82,15.72s-3.53,12.48-8.82,15.72v13.46c6.97-.35,13.4-1.34,19.22-2.93v-53.92h-19.22Z"/>
  <path class="cls-5" d="m94.23,105.67v-11.94h-19.22v11.94c2.8-1.71,6.09-2.7,9.61-2.7s6.81.99,9.61,2.7h0Z"/>
  <path class="cls-5" d="m75.01,137.11v13.46c.34.02.68.04,1.02.05h.32c6.14.03,11.93.07,16.84,0,.35-.01.69-.03,1.04-.05v-13.46c-2.8,1.71-6.09,2.7-9.61,2.7s-6.81-.99-9.61-2.7h0Z"/>
  <path class="cls-7" d="m75.22,124.73c-3.33-3.04-3.34-9.21-2.45-13.31.25-1.14.56-2.26.89-3.54-3.92,3.19-6.42,8.05-6.42,13.5,0,2.31.45,4.51,1.26,6.52.3.04.6.06.9.06,2.58,0,4.68-1.19,5.82-3.24h0Z"/>
  <path class="cls-7" d="m93.12,126.06c-.57,2.92-3.69,5.1-6.63,6.85-3.03,1.81-7.91,2.74-11.58,2.91,2.77,1.87,6.11,2.96,9.71,2.96,6.56,0,12.27-3.63,15.23-8.99-.52-4.29-4.6-4.8-6.73-3.73h0Z"/>
  <path class="cls-7" d="m73.57,134.82c3.63.03,9.2-.88,12.4-2.79,4.13-2.47,7.34-5.1,5.82-8.74-.77-1.84-3.33-3.98-6.65-1.62-.21,2.72-3.57,5.12-5.99,4.81-1.22-.16-2.25-.54-3.1-1.1-1.36,2.32-3.78,3.63-6.65,3.63-.14,0-.28,0-.42-.01,1.1,2.26,2.67,4.24,4.59,5.82h0Z"/>
  <path class="cls-7" d="m84.58,110.55c2.88-1.19,6.86.36,9.9,2.05,2.87,1.6,5.86,4.59,7.5,7.73-.54-9.07-8.03-16.26-17.21-16.34-2.74,1.8-2.37,5.2-.19,6.55h0Z"/>
  <path class="cls-7" d="m84.09,121.65c-3.56-2.6-3.34-6.68-1.81-9.11.38-.6.81-1.06,1.3-1.42-2.07-1.65-2.49-4.86-.48-7.05-3,.26-5.78,1.28-8.15,2.87-.76,3.27-1.73,6.25-1.68,9.66.06,4.6,1.97,8.34,6,8.86,1.88.24,4.6-1.76,4.81-3.8h0Z"/>
  <path class="cls-7" d="m101.94,122.99c-.99-3.6-4.56-7.58-7.97-9.48-4.2-2.35-8.8-3.62-10.82-.42-1.3,2.06-1.48,5.45,1.46,7.66,4-2.76,7.19-.08,8.12,2.13.3.71.45,1.38.47,2.02,2.36-.83,6.2-.3,7.38,3.39.71-1.65,1.18-3.44,1.35-5.31h0Z"/>
  <path class="cls-4" d="m68.77,72.57h-12.16v17.09h3.7v-7.05h5.04v-3.61h-5.04v-2.8h8.63v-3.63h-.18Z"/>
  <path class="cls-4" d="m75.84,81.11c0,5.35,2.94,8.81,7.49,8.81,2.97,0,5.11-1.3,6.35-3.88l.07-.15-3.12-1.85-.09.15c-.89,1.49-1.73,2.04-3.12,2.04-2.27,0-3.79-2.06-3.79-5.13s1.44-5.13,3.77-5.13c1.35,0,2.3.56,2.9,1.72l.08.15,3.43-1.58-.08-.16c-1.21-2.49-3.38-3.81-6.28-3.81-4.48,0-7.61,3.62-7.61,8.81h0Z"/>
  <path class="cls-4" d="m110.42,80.4c1.04-.73,1.64-1.89,1.64-3.23,0-2.88-2.05-4.6-5.49-4.6h-7.85v17.09h7.78c3.84,0,6.13-2.09,6.13-5.58,0-1.64-.82-2.95-2.22-3.68h0Zm-8.06-4.39h4.08c1.66,0,1.88.76,1.88,1.42,0,.94-.56,1.4-1.71,1.4h-4.24v-2.82h0Zm4.27,10.12h-4.27v-3.97h4.27c1.51,0,2.21.63,2.21,1.97s-.76,2-2.21,2h0Z"/>
  <path class="cls-4" d="m110.47,11.46c-8.28,5.01-16.74,7.45-25.85,7.46-9.11,0-17.56-2.45-25.85-7.46l-.28-.17-.28.16c-9.43,5.33-17.74,6.37-28.89,6.37-2.68,0-5.44-.27-8.22-.8l-1.2-.23.61,1.05c11.46,19.6,7.39,38.56,1.96,51l-.34.77h124.93l-.34-.77c-5.43-12.45-9.49-31.4,1.96-51l.61-1.05-1.19.23c-2.77.53-5.54.8-8.22.8-11.15,0-19.45-1.04-28.89-6.37l-.28-.16-.28.17h0Z"/>
  <path class="cls-1" d="m46.3,17.35c-5.23,1.24-10.65,1.58-16.97,1.58-2.39,0-4.85-.25-7.31-.66,2.93,5.23,4.79,10.41,5.85,15.43h18.44v-16.35h0Z"/>
  <path class="cls-1" d="m84.07,33.7v-13.69c-6.62-.08-12.89-1.42-19.01-4.07v17.76h19.01Z"/>
  <path class="cls-1" d="m28.39,52.45c-.87,6-2.61,11.44-4.56,16.06h22.48v-16.06h-17.92Z"/>
  <path class="cls-1" d="m65.06,68.51h19.01v-16.06h-19.01v16.06h0Z"/>
  <path class="cls-6" d="m65.06,33.7V15.94c-2.21-.96-4.4-2.08-6.58-3.38-4.16,2.32-8.11,3.83-12.17,4.79v16.35h-18.44c.77,3.67,1.11,7.26,1.11,10.72,0,2.77-.22,5.45-.59,8.04h17.92v16.06h18.75v-16.06h19.01v-18.75h-19.01Z"/>
  <path class="cls-3" d="m110.77,12.56s-.02.01-.03.02v55.94h6.59V15.62c-2.16-.82-4.33-1.82-6.57-3.07h0Z"/>
  <path class="cls-3" d="m97.55,18.28v50.24h6.59V15.96c-2.17.94-4.37,1.71-6.59,2.32h0Z"/>
  <path class="cls-3" d="m85.17,20.01v48.51h5.79V19.6c-1.9.24-3.83.38-5.79.41h0Z"/>
  <path class="cls-3" d="m123.92,17.56v50.95h6.59V18.56c-2.27-.21-4.45-.53-6.59-.99h0Z"/>
  <path class="cls-3" d="m140.26,44.42c0-8.18,1.89-17.09,6.96-26.15-2.47.41-4.92.66-7.31.66-.96,0-1.89-.01-2.8-.03v49.62h8.31c-2.79-6.6-5.15-14.89-5.15-24.1h0Z"/>
  <path class="cls-6" d="m130.52,18.56v49.96h6.59V18.9c-2.3-.04-4.48-.15-6.59-.34h0Z"/>
  <path class="cls-6" d="m90.96,19.6v48.91h6.59V18.28c-2.17.59-4.36,1.04-6.59,1.32h0Z"/>
  <path class="cls-6" d="m104.15,15.96v52.56h6.59V12.57c-2.18,1.3-4.38,2.43-6.59,3.38h0Z"/>
  <path class="cls-6" d="m117.33,15.62v52.89h6.59V17.56c-2.22-.48-4.4-1.11-6.59-1.94h0Z"/>
</svg>