<?xml version="1.0" encoding="utf-8"?>
<!-- Generator: Adobe Illustrator 27.7.0, SVG Export Plug-In . SVG Version: 6.00 Build 0)  -->
<svg version="1.1" id="Capa_1" xmlns="http://www.w3.org/2000/svg" xmlns:xlink="http://www.w3.org/1999/xlink" x="0px" y="0px"
	 viewBox="0 0 1000 356.4" style="enable-background:new 0 0 1000 356.4;" xml:space="preserve">
<style type="text/css">
	.st0{fill:#FFFFFF;}
</style>
<path class="st0" d="M110.3,356.2c-29.8-1.2-54.2-9.3-73.2-24.5c-3.6-2.9-12.3-11.6-15.2-15.2c-7.7-9.7-13-19.2-16.5-29.7
	c-10.8-32.3-5.2-74.7,15.9-121.2c18.1-39.8,46-79.3,94.6-134.1C123,23.5,144.4,0,144.5,0c0.1,0-1.1,2-2.6,4.5
	c-12.7,21.2-23.5,46.2-29.4,67.8c-9.5,34.7-8.3,64.4,3.3,87.5c8.1,15.9,21.9,29.7,37.4,37.3c27.2,13.3,67,14.4,115.6,3.2
	c3.3-0.8,169.2-44.8,368.6-97.8C836.8,49.4,1000,6,1000,6.1c0.1,0-463.2,198.3-703.6,301.1c-38.1,16.3-48.3,20.4-66.2,26.7
	C184.4,349.9,143.4,357.6,110.3,356.2L110.3,356.2z"/>
</svg>
